<svg width="24" height="24" viewBox="0 0 24 24" fill="none" xmlns="http://www.w3.org/2000/svg">
<path d="M7.27553 8.91601C9.88479 6.36133 14.1152 6.36133 16.7245 8.91601L17.0385 9.22346C17.169 9.3512 17.169 9.5583 17.0385 9.68603L15.9643 10.7378C15.8991 10.8017 15.7933 10.8017 15.7281 10.7378L15.2959 10.3147C13.4756 8.53248 10.5244 8.53248 8.7041 10.3147L8.24131 10.7678C8.17608 10.8317 8.07032 10.8317 8.00509 10.7678L6.93086 9.71604C6.8004 9.5883 6.8004 9.3812 6.93086 9.25347L7.27553 8.91601ZM18.9461 11.0911L19.9022 12.0272C20.0326 12.155 20.0326 12.362 19.9022 12.4898L15.5912 16.7106C15.4607 16.8384 15.2492 16.8384 15.1187 16.7106C15.1187 16.7106 15.1187 16.7106 15.1187 16.7106L12.0591 13.715C12.0265 13.683 11.9736 13.683 11.941 13.715C11.941 13.715 11.941 13.715 11.941 13.715L8.88138 16.7106C8.75092 16.8384 8.5394 16.8384 8.40893 16.7106C8.40893 16.7106 8.40893 16.7106 8.40893 16.7106L4.09785 12.4897C3.96738 12.362 3.96738 12.1549 4.09785 12.0272L5.05391 11.0911C5.18438 10.9634 5.3959 10.9634 5.52636 11.0911L8.58606 14.0868C8.61868 14.1187 8.67156 14.1187 8.70418 14.0868C8.70418 14.0868 8.70418 14.0868 8.70418 14.0868L11.7637 11.0911C11.8942 10.9634 12.1057 10.9634 12.2362 11.0911C12.2362 11.0911 12.2362 11.0911 12.2362 11.0911L15.2959 14.0868C15.3285 14.1187 15.3814 14.1187 15.414 14.0868L18.4736 11.0911C18.6041 10.9634 18.8156 10.9634 18.9461 11.0911Z" fill="#3B99FC"/>
</svg>
